<svg xmlns="http://www.w3.org/2000/svg" version="1.1" viewBox="0 0 1286.049988 394.859985">
    <defs>
        <style>
            .st0 {
            fill: #fff;
            }
        </style>
    </defs>
    <g>
        <g>
            <path class="st0"
                d="M108.169983,313.080017C47.759979,313.080017,0,268.179993,0,206.540039s47.76001-106.540009,108.169983-106.540009c42.450012,0,79.190002,23.679993,96.73999,58.779999l-48.570007,26.119995c-8.160004-18.779999-25.720001-32.660004-48.169983-32.660004-29.390015,0-51.839996,22.860016-51.839996,54.290009s22.450012,54.289978,51.839996,54.289978c22.450012,0,40-13.880005,48.169983-32.650024l48.570007,26.119995c-17.549988,35.099976-54.290009,58.77002-96.73999,58.77002v.02002Z" />
            <path class="st0"
                d="M268.579956,71.029999c-19.179993,0-35.51001-15.920013-35.51001-35.519989S249.399963,0,268.579956,0s35.919983,15.920013,35.919983,35.51001-15.919983,35.519989-35.919983,35.519989ZM240.819946,104.5h55.919983v204.090027h-55.919983V104.5Z" />
            <path class="st0"
                d="M350.609985,104.5h55.919983v32.649994c6.940002-20,27.76001-35.110016,50.619995-35.110016,5.719971,0,11.840027.410004,18.780029,2.450012v56.73999c-8.580017-2.859985-16.330017-4.48999-25.309998-4.48999-26.530029,0-44.090027,20.820007-44.090027,54.289978v97.559998h-55.919983V104.499969v.000031Z" />
            <path class="st0"
                d="M599.619995,313.080017c-60.409973,0-108.169983-44.900024-108.169983-106.539978s47.76001-106.540009,108.169983-106.540009c42.450012,0,79.190002,23.679993,96.73999,58.779999l-48.570007,26.119995c-8.159973-18.779999-25.719971-32.660004-48.169983-32.660004-29.390015,0-51.840027,22.860016-51.840027,54.290009s22.450012,54.289978,51.840027,54.289978c22.450012,0,40-13.880005,48.169983-32.650024l48.570007,26.119995c-17.549988,35.099976-54.289978,58.77002-96.73999,58.77002v.02002Z" />
            <path class="st0" d="M732.259949,2.449982h55.920044v306.149994h-55.920044V2.449982Z" />
            <path class="st0"
                d="M933.090027,100.009979c53.47998,0,100.420044,34.290009,100.420044,100.420013,0,4.900024,0,10.609985-.810059,19.179993h-152.670044c3.27002,27.349976,27.349976,42.460022,54.290039,42.460022,25.310059,0,43.680054-11.840027,52.660034-25.719971l41.640015,31.02002c-18.77002,27.340027-51.839966,45.710022-94.699951,45.710022-60.829956,0-108.170044-42.039978-108.170044-106.539978,0-60.410004,45.310059-106.540009,107.349976-106.540009l-.01001.009888ZM882.070007,181.649963h95.51001c-4.890015-24.079987-25.300049-35.519989-46.119995-35.519989s-44.089966,10.609985-49.400024,35.519989h.01001Z" />
        </g>
        <path class="st0"
            d="M1171.869934,394.859985c-41.650024,0-81.140015-13.330017-114.180054-38.549988l32.300049-42.299988c23.680054,18.070007,51.98999,27.630005,81.869995,27.630005s58.199951-9.559998,81.890015-27.640015l32.300049,42.299988c-33.040039,25.22998-72.530029,38.559998-114.189941,38.559998h.009888Z" />
        <path class="st0"
            d="M1275.879944,215.679993c0-26.340027-12.060059-48.970001-27.869995-59.669983h23.290039v-56.390015h-100.680054c-.219971,0-.410034.029999-.630005.029999v-.029999c-3.75,0-7.459961.190002-11.109985.559998-13.670044,1.190002-24.5,4.420013-33.069946,8.799988-37.400024,16.540009-63.540039,53.429993-63.540039,97.23999,0,19.140015,5.280029,36.929993,14.349976,52.330017,17.040039,32.080017,52.51001,54.27002,94,54.27002.319946,0,.630005-.039978.949951-.039978.300049,0,.589966.039978.900024.039978l-.069946-.080017c57.819946-.880005,103.47998-44.090027,103.47998-97.049988v-.01001ZM1170.330017,262.289978c-29.780029,0-53.930054-24.789978-53.930054-55.369995,0-7.159973,1.369995-13.98999,3.780029-20.27002,6.77002-20.25,25.469971-35.179993,50.449951-35.179993,30.300049,0,50.890015,21.359985,53.040039,47.700012.349976,2.539978.589966,5.109985.589966,7.75,0,30.580017-24.140015,55.369995-53.930054,55.369995h.000122Z" />
    </g>
    <g>
        <g>
            <path class="st0"
                d="M108.169983,313.080017C47.759979,313.080017,0,268.179993,0,206.540039s47.76001-106.540009,108.169983-106.540009c42.450012,0,79.190002,23.679993,96.73999,58.779999l-48.570007,26.119995c-8.160004-18.779999-25.720001-32.660004-48.169983-32.660004-29.390015,0-51.839996,22.860016-51.839996,54.290009s22.450012,54.289978,51.839996,54.289978c22.450012,0,40-13.880005,48.169983-32.650024l48.570007,26.119995c-17.549988,35.099976-54.290009,58.77002-96.73999,58.77002v.02002Z" />
            <path class="st0"
                d="M268.579956,71.029999c-19.179993,0-35.51001-15.920013-35.51001-35.519989S249.399963,0,268.579956,0s35.919983,15.920013,35.919983,35.51001-15.919983,35.519989-35.919983,35.519989ZM240.819946,104.5h55.919983v204.090027h-55.919983V104.5Z" />
            <path class="st0"
                d="M350.609985,104.5h55.919983v32.649994c6.940002-20,27.76001-35.110016,50.619995-35.110016,5.719971,0,11.840027.410004,18.780029,2.450012v56.73999c-8.580017-2.859985-16.330017-4.48999-25.309998-4.48999-26.530029,0-44.090027,20.820007-44.090027,54.289978v97.559998h-55.919983V104.499969v.000031Z" />
            <path class="st0"
                d="M599.619995,313.080017c-60.409973,0-108.169983-44.900024-108.169983-106.539978s47.76001-106.540009,108.169983-106.540009c42.450012,0,79.190002,23.679993,96.73999,58.779999l-48.570007,26.119995c-8.159973-18.779999-25.719971-32.660004-48.169983-32.660004-29.390015,0-51.840027,22.860016-51.840027,54.290009s22.450012,54.289978,51.840027,54.289978c22.450012,0,40-13.880005,48.169983-32.650024l48.570007,26.119995c-17.549988,35.099976-54.289978,58.77002-96.73999,58.77002v.02002Z" />
            <path class="st0" d="M732.259949,2.449982h55.920044v306.149994h-55.920044V2.449982Z" />
            <path class="st0"
                d="M933.090027,100.009979c53.47998,0,100.420044,34.290009,100.420044,100.420013,0,4.900024,0,10.609985-.810059,19.179993h-152.670044c3.27002,27.349976,27.349976,42.460022,54.290039,42.460022,25.310059,0,43.680054-11.840027,52.660034-25.719971l41.640015,31.02002c-18.77002,27.340027-51.839966,45.710022-94.699951,45.710022-60.829956,0-108.170044-42.039978-108.170044-106.539978,0-60.410004,45.310059-106.540009,107.349976-106.540009l-.01001.009888ZM882.070007,181.649963h95.51001c-4.890015-24.079987-25.300049-35.519989-46.119995-35.519989s-44.089966,10.609985-49.400024,35.519989h.01001Z" />
        </g>
        <path class="st0"
            d="M1171.869934,394.859985c-41.650024,0-81.140015-13.330017-114.180054-38.549988l32.300049-42.299988c23.680054,18.070007,51.98999,27.630005,81.869995,27.630005s58.199951-9.559998,81.890015-27.640015l32.300049,42.299988c-33.040039,25.22998-72.530029,38.559998-114.189941,38.559998h.009888Z" />
        <path class="st0"
            d="M1275.879944,215.679993c0-26.340027-12.060059-48.970001-27.869995-59.669983h23.290039v-56.390015h-100.680054c-.219971,0-.410034.029999-.630005.029999v-.029999c-3.75,0-7.459961.190002-11.109985.559998-13.670044,1.190002-24.5,4.420013-33.069946,8.799988-37.400024,16.540009-63.540039,53.429993-63.540039,97.23999,0,19.140015,5.280029,36.929993,14.349976,52.330017,17.040039,32.080017,52.51001,54.27002,94,54.27002.319946,0,.630005-.039978.949951-.039978.300049,0,.589966.039978.900024.039978l-.069946-.080017c57.819946-.880005,103.47998-44.090027,103.47998-97.049988v-.01001ZM1170.330017,262.289978c-29.780029,0-53.930054-24.789978-53.930054-55.369995,0-7.159973,1.369995-13.98999,3.780029-20.27002,6.77002-20.25,25.469971-35.179993,50.449951-35.179993,30.300049,0,50.890015,21.359985,53.040039,47.700012.349976,2.539978.589966,5.109985.589966,7.75,0,30.580017-24.140015,55.369995-53.930054,55.369995h.000122Z" />
    </g>
</svg>